<svg width="70" height="70" viewBox="0 0 70 70" fill="none" xmlns="http://www.w3.org/2000/svg">
<path d="M20.4169 20.4168H20.4431M37.9169 40.8335H55.4169C58.1352 40.8335 59.4944 40.8335 60.5648 41.2768C61.273 41.57 61.9165 41.9999 62.4585 42.5419C63.0005 43.0839 63.4304 43.7274 63.7235 44.4356C64.1669 45.506 64.1669 46.8652 64.1669 49.5835C64.1669 52.3018 64.1669 53.661 63.7235 54.7314C63.4304 55.4396 63.0005 56.0831 62.4585 56.6251C61.9165 57.1671 61.273 57.597 60.5648 57.8902C59.4944 58.3335 58.1352 58.3335 55.4169 58.3335H37.9169M43.7502 14.5835H55.4169C58.1352 14.5835 59.4944 14.5835 60.5648 15.0268C61.273 15.32 61.9165 15.7499 62.4585 16.2919C63.0005 16.8339 63.4304 17.4774 63.7235 18.1856C64.1669 19.256 64.1669 20.6152 64.1669 23.3335C64.1669 26.0518 64.1669 27.411 63.7235 28.4814C63.4304 29.1896 63.0005 29.8331 62.4585 30.3751C61.9165 30.9171 61.273 31.347 60.5648 31.6402C59.4944 32.0835 58.1352 32.0835 55.4169 32.0835H43.7502M20.4169 5.8335C17.2057 5.83253 14.0841 6.89141 11.5363 8.84585C8.98847 10.8003 7.15696 13.541 6.32593 16.6427C5.49491 19.7444 5.71085 23.0337 6.94024 26.0001C8.16963 28.9666 10.3437 31.4443 13.1252 33.0489V52.0422C13.1252 54.4281 13.1252 55.6181 13.5685 56.6914C14.0119 57.7618 14.8577 58.6048 16.5435 60.2935L20.4169 64.1668L26.5652 58.0185C26.8481 57.7356 26.991 57.5927 27.1077 57.4381C27.4167 57.0343 27.6148 56.5567 27.6823 56.0527C27.7085 55.8602 27.7085 55.6589 27.7085 55.2593C27.7085 54.9356 27.7085 54.7722 27.691 54.6147C27.6456 54.2015 27.5123 53.8027 27.3002 53.4452C27.1855 53.2634 27.0609 53.0882 26.9269 52.9202L23.3335 48.1252L25.3752 45.4039C26.5302 43.861 27.1106 43.091 27.4081 42.1927C27.7085 41.2943 27.7085 40.3318 27.7085 38.401V33.0489C30.49 31.4443 32.6641 28.9666 33.8935 26.0001C35.1229 23.0337 35.3388 19.7444 34.5078 16.6427C33.6767 13.541 31.8452 10.8003 29.2974 8.84585C26.7496 6.89141 23.628 5.83253 20.4169 5.8335Z" stroke="#E5BD3E" stroke-width="1.5" stroke-linecap="round" stroke-linejoin="round"/>
</svg>
