<svg width="70" height="70" viewBox="0 0 70 70" fill="none" xmlns="http://www.w3.org/2000/svg">
<path d="M20.4159 20.4167H20.4421M37.9159 40.8333H55.4159C58.1342 40.8333 59.4934 40.8333 60.5638 41.2767C61.272 41.5698 61.9155 41.9997 62.4575 42.5417C62.9995 43.0837 63.4294 43.7272 63.7225 44.4354C64.1659 45.5058 64.1659 46.865 64.1659 49.5833C64.1659 52.3017 64.1659 53.6608 63.7225 54.7313C63.4294 55.4395 62.9995 56.083 62.4575 56.625C61.9155 57.167 61.272 57.5968 60.5638 57.89C59.4934 58.3333 58.1342 58.3333 55.4159 58.3333H37.9159M43.7492 14.5833H55.4159C58.1342 14.5833 59.4934 14.5833 60.5638 15.0267C61.272 15.3198 61.9155 15.7497 62.4575 16.2917C62.9995 16.8337 63.4294 17.4772 63.7225 18.1854C64.1659 19.2558 64.1659 20.615 64.1659 23.3333C64.1659 26.0517 64.1659 27.4108 63.7225 28.4813C63.4294 29.1895 62.9995 29.833 62.4575 30.375C61.9155 30.917 61.272 31.3468 60.5638 31.64C59.4934 32.0833 58.1342 32.0833 55.4159 32.0833H43.7492M20.4159 5.83334C17.2048 5.83236 14.0831 6.89125 11.5353 8.84569C8.98749 10.8001 7.15598 13.5408 6.32496 16.6426C5.49393 19.7443 5.70987 23.0335 6.93926 26C8.16865 28.9664 10.3428 31.4442 13.1242 33.0488V52.0421C13.1242 54.4279 13.1242 55.6179 13.5675 56.6913C14.0109 57.7617 14.8567 58.6046 16.5425 60.2933L20.4159 64.1667L26.5642 58.0183C26.8471 57.7354 26.99 57.5925 27.1067 57.4379C27.4157 57.0341 27.6138 56.5565 27.6813 56.0525C27.7075 55.86 27.7075 55.6588 27.7075 55.2592C27.7075 54.9354 27.7075 54.7721 27.69 54.6146C27.6446 54.2013 27.5114 53.8026 27.2992 53.445C27.1845 53.2633 27.0599 53.088 26.9259 52.92L23.3325 48.125L25.3742 45.4038C26.5292 43.8608 27.1096 43.0908 27.4071 42.1925C27.7075 41.2942 27.7075 40.3317 27.7075 38.4008V33.0488C30.489 31.4442 32.6631 28.9664 33.8925 26C35.1219 23.0335 35.3378 19.7443 34.5068 16.6426C33.6758 13.5408 31.8443 10.8001 29.2964 8.84569C26.7486 6.89125 23.627 5.83236 20.4159 5.83334Z" stroke="#20B2AA" stroke-width="1.5" stroke-linecap="round" stroke-linejoin="round"/>
</svg>
