<svg width="50" height="50" viewBox="0 0 50 50" fill="none" xmlns="http://www.w3.org/2000/svg">
<path d="M43.7503 43.75H6.25033C5.69779 43.75 5.16789 43.5305 4.77719 43.1398C4.38649 42.7491 4.16699 42.2192 4.16699 41.6667V26.0146C4.16696 25.7169 4.23072 25.4227 4.35399 25.1517C4.47725 24.8807 4.65715 24.6393 4.88158 24.4437L12.5003 17.8V8.33333C12.5003 7.7808 12.7198 7.25089 13.1105 6.86019C13.5012 6.46949 14.0311 6.25 14.5837 6.25H43.7503C44.3029 6.25 44.8328 6.46949 45.2235 6.86019C45.6142 7.25089 45.8337 7.7808 45.8337 8.33333V41.6667C45.8337 42.2192 45.6142 42.7491 45.2235 43.1398C44.8328 43.5305 44.3029 43.75 43.7503 43.75ZM18.7503 39.5833H25.0003V26.9625L16.667 19.6958L8.33366 26.9625V39.5833H14.5837V31.25H18.7503V39.5833ZM29.167 39.5833H41.667V10.4167H16.667V14.8479C17.1545 14.8479 17.6441 15.0188 18.0357 15.3625L28.4524 24.4437C28.6768 24.6393 28.8567 24.8807 28.98 25.1517C29.1033 25.4227 29.167 25.7169 29.167 26.0146V39.5833ZM33.3337 22.9167H37.5003V27.0833H33.3337V22.9167ZM33.3337 31.25H37.5003V35.4167H33.3337V31.25ZM33.3337 14.5833H37.5003V18.75H33.3337V14.5833ZM25.0003 14.5833H29.167V18.75H25.0003V14.5833Z" fill="#0E252E"/>
</svg>
