<svg width="70" height="70" viewBox="0 0 70 70" fill="none" xmlns="http://www.w3.org/2000/svg">
<path d="M61.2502 61.25H8.75016C7.97661 61.25 7.23475 60.9427 6.68777 60.3957C6.14079 59.8488 5.8335 59.1069 5.8335 58.3333V36.4204C5.83345 36.0037 5.92272 35.5917 6.09529 35.2124C6.26786 34.833 6.51972 34.4951 6.83391 34.2213L17.5002 24.92V11.6667C17.5002 10.8931 17.8075 10.1513 18.3544 9.60427C18.9014 9.05729 19.6433 8.75 20.4168 8.75H61.2502C62.0237 8.75 62.7656 9.05729 63.3126 9.60427C63.8595 10.1513 64.1668 10.8931 64.1668 11.6667V58.3333C64.1668 59.1069 63.8595 59.8488 63.3126 60.3957C62.7656 60.9427 62.0237 61.25 61.2502 61.25ZM26.2502 55.4167H35.0002V37.7475L23.3335 27.5742L11.6668 37.7475V55.4167H20.4168V43.75H26.2502V55.4167ZM40.8335 55.4167H58.3335V14.5833H23.3335V20.7871C24.016 20.7871 24.7014 21.0263 25.2497 21.5075L39.8331 34.2213C40.1473 34.4951 40.3991 34.833 40.5717 35.2124C40.7443 35.5917 40.8335 36.0037 40.8335 36.4204V55.4167ZM46.6668 32.0833H52.5002V37.9167H46.6668V32.0833ZM46.6668 43.75H52.5002V49.5833H46.6668V43.75ZM46.6668 20.4167H52.5002V26.25H46.6668V20.4167ZM35.0002 20.4167H40.8335V26.25H35.0002V20.4167Z" fill="#E5BD3E"/>
</svg>
