<svg width="60" height="54" viewBox="0 0 60 54" fill="none" xmlns="http://www.w3.org/2000/svg">
<path d="M56.2507 53.25H3.75065C2.9771 53.25 2.23524 52.9427 1.68826 52.3957C1.14128 51.8488 0.833984 51.1069 0.833984 50.3333V28.4204C0.833939 28.0037 0.923208 27.5917 1.09578 27.2124C1.26835 26.833 1.52021 26.4951 1.8344 26.2213L12.5007 16.92V3.66667C12.5007 2.89312 12.8079 2.15125 13.3549 1.60427C13.9019 1.05729 14.6438 0.75 15.4173 0.75H56.2507C57.0242 0.75 57.7661 1.05729 58.313 1.60427C58.86 2.15125 59.1673 2.89312 59.1673 3.66667V50.3333C59.1673 51.1069 58.86 51.8488 58.313 52.3957C57.7661 52.9427 57.0242 53.25 56.2507 53.25ZM21.2507 47.4167H30.0007V29.7475L18.334 19.5742L6.66732 29.7475V47.4167H15.4173V35.75H21.2507V47.4167ZM35.834 47.4167H53.334V6.58333H18.334V12.7871C19.0165 12.7871 19.7019 13.0263 20.2502 13.5075L34.8336 26.2213C35.1478 26.4951 35.3996 26.833 35.5722 27.2124C35.7448 27.5917 35.834 28.0037 35.834 28.4204V47.4167ZM41.6673 24.0833H47.5007V29.9167H41.6673V24.0833ZM41.6673 35.75H47.5007V41.5833H41.6673V35.75ZM41.6673 12.4167H47.5007V18.25H41.6673V12.4167ZM30.0007 12.4167H35.834V18.25H30.0007V12.4167Z" fill="#20B2AA"/>
</svg>
