<svg width="35" height="35" viewBox="0 0 35 35" fill="none" xmlns="http://www.w3.org/2000/svg">
<path d="M13.125 21.8751V20.4167H14.5833V21.8751H13.125Z" fill="#27516C"/>
<path fill-rule="evenodd" clip-rule="evenodd" d="M26.2502 2.91675C27.0237 2.91675 27.7656 3.22404 28.3126 3.77102C28.8595 4.318 29.1668 5.05987 29.1668 5.83341V29.1667C29.1668 29.9403 28.8595 30.6822 28.3126 31.2291C27.7656 31.7761 27.0237 32.0834 26.2502 32.0834H8.75016C7.97661 32.0834 7.23475 31.7761 6.68777 31.2291C6.14079 30.6822 5.8335 29.9403 5.8335 29.1667V5.83341C5.8335 5.05987 6.14079 4.318 6.68777 3.77102C7.23475 3.22404 7.97661 2.91675 8.75016 2.91675H26.2502ZM15.3127 17.5001H12.396C11.8158 17.5001 11.2594 17.7305 10.8492 18.1408C10.439 18.551 10.2085 19.1074 10.2085 19.6876V22.6042C10.2085 23.1844 10.439 23.7408 10.8492 24.151C11.2594 24.5613 11.8158 24.7917 12.396 24.7917H15.3127C15.8928 24.7917 16.4492 24.5613 16.8595 24.151C17.2697 23.7408 17.5002 23.1844 17.5002 22.6042V19.6876C17.5002 19.1074 17.2697 18.551 16.8595 18.1408C16.4492 17.7305 15.8928 17.5001 15.3127 17.5001ZM23.3335 19.6876H20.4168C20.0451 19.688 19.6876 19.8303 19.4173 20.0855C19.1471 20.3406 18.9844 20.6894 18.9626 21.0604C18.9408 21.4315 19.0616 21.7969 19.3001 22.0819C19.5387 22.367 19.8771 22.5501 20.2462 22.594L20.4168 22.6042H23.3335C23.7052 22.6038 24.0627 22.4615 24.333 22.2063C24.6033 21.9512 24.7659 21.6024 24.7877 21.2314C24.8095 20.8603 24.6888 20.4949 24.4502 20.2099C24.2116 19.9249 23.8732 19.7417 23.5041 19.6978L23.3335 19.6876ZM14.7789 9.86279L12.7168 11.9249L12.2006 11.4086C12.0661 11.2693 11.9051 11.1582 11.7272 11.0818C11.5493 11.0054 11.3579 10.9651 11.1643 10.9635C10.9707 10.9618 10.7786 10.9987 10.5994 11.072C10.4202 11.1453 10.2573 11.2536 10.1204 11.3905C9.98349 11.5275 9.87521 11.6903 9.80188 11.8695C9.72856 12.0487 9.69166 12.2408 9.69334 12.4344C9.69502 12.6281 9.73525 12.8194 9.81168 12.9973C9.88811 13.1753 9.99921 13.3362 10.1385 13.4707L11.4277 14.7599C11.5969 14.9292 11.7979 15.0635 12.0191 15.1552C12.2403 15.2468 12.4774 15.294 12.7168 15.294C12.9563 15.294 13.1933 15.2468 13.4145 15.1552C13.6357 15.0635 13.8367 14.9292 14.006 14.7599L16.841 11.9249C17.1066 11.6498 17.2536 11.2814 17.2503 10.8991C17.247 10.5167 17.0936 10.1509 16.8232 9.88055C16.5528 9.61017 16.1871 9.4568 15.8047 9.45347C15.4223 9.45015 15.054 9.59714 14.7789 9.86279ZM23.3335 11.6667H20.4168C20.0451 11.6672 19.6876 11.8095 19.4173 12.0647C19.1471 12.3198 18.9844 12.6686 18.9626 13.0396C18.9408 13.4107 19.0616 13.7761 19.3001 14.0611C19.5387 14.3461 19.8771 14.5293 20.2462 14.5732L20.4168 14.5834H23.3335C23.7052 14.583 24.0627 14.4407 24.333 14.1855C24.6033 13.9303 24.7659 13.5816 24.7877 13.2105C24.8095 12.8395 24.6888 12.4741 24.4502 12.1891C24.2116 11.904 23.8732 11.7209 23.5041 11.677L23.3335 11.6667Z" fill="#27516C"/>
</svg>
