<svg width="50" height="50" viewBox="0 0 50 50" fill="none" xmlns="http://www.w3.org/2000/svg">
<path d="M43.75 12.5H37.5V6.25C37.4988 5.42158 37.1691 4.62744 36.5833 4.04166C35.9976 3.45588 35.2034 3.12624 34.375 3.125H6.25C5.42158 3.12624 4.62744 3.45588 4.04166 4.04166C3.45588 4.62744 3.12624 5.42158 3.125 6.25V34.375C3.12624 35.2034 3.45588 35.9976 4.04166 36.5833C4.62744 37.1691 5.42158 37.4988 6.25 37.5H12.5V43.75C12.5012 44.5784 12.8309 45.3726 13.4167 45.9583C14.0024 46.5441 14.7966 46.8738 15.625 46.875H43.75C44.5784 46.8738 45.3726 46.5441 45.9583 45.9583C46.5441 45.3726 46.8738 44.5784 46.875 43.75V15.625C46.8738 14.7966 46.5441 14.0024 45.9583 13.4167C45.3726 12.8309 44.5784 12.5012 43.75 12.5ZM34.375 34.375H21.875V26.5625H34.375V34.375ZM34.375 23.4375H21.875V15.625H34.375V23.4375ZM18.75 23.4375H6.25V15.625H18.75V23.4375ZM34.375 6.25V12.5H6.25V6.25H34.375ZM6.25 34.375V26.5625H18.75V34.375H6.25ZM43.75 43.75H15.625V37.5H34.375C35.2034 37.4988 35.9976 37.1691 36.5833 36.5833C37.1691 35.9976 37.4988 35.2034 37.5 34.375V15.625H43.75V43.75Z" fill="#0E252E"/>
</svg>
