<svg width="70" height="70" viewBox="0 0 70 70" fill="none" xmlns="http://www.w3.org/2000/svg">
<path d="M61.25 17.5H52.5V8.75C52.4983 7.59021 52.0368 6.47842 51.2167 5.65832C50.3966 4.83823 49.2848 4.37674 48.125 4.375H8.75C7.59021 4.37674 6.47842 4.83823 5.65832 5.65832C4.83823 6.47842 4.37674 7.59021 4.375 8.75V48.125C4.37674 49.2848 4.83823 50.3966 5.65832 51.2167C6.47842 52.0368 7.59021 52.4983 8.75 52.5H17.5V61.25C17.5017 62.4098 17.9632 63.5216 18.7833 64.3417C19.6034 65.1618 20.7152 65.6233 21.875 65.625H61.25C62.4098 65.6233 63.5216 65.1618 64.3417 64.3417C65.1618 63.5216 65.6233 62.4098 65.625 61.25V21.875C65.6233 20.7152 65.1618 19.6034 64.3417 18.7833C63.5216 17.9632 62.4098 17.5017 61.25 17.5ZM48.125 48.125H30.625V37.1875H48.125V48.125ZM48.125 32.8125H30.625V21.875H48.125V32.8125ZM26.25 32.8125H8.75V21.875H26.25V32.8125ZM48.125 8.75V17.5H8.75V8.75H48.125ZM8.75 48.125V37.1875H26.25V48.125H8.75ZM61.25 61.25H21.875V52.5H48.125C49.2848 52.4983 50.3966 52.0368 51.2167 51.2167C52.0368 50.3966 52.4983 49.2848 52.5 48.125V21.875H61.25V61.25Z" fill="#E5BD3E"/>
</svg>
