<svg width="100" height="100" viewBox="0 0 100 100" fill="none" xmlns="http://www.w3.org/2000/svg">
<rect width="100" height="100" rx="50" fill="#00C2FF"/>
<path d="M69.7923 43.75C69.7931 46.4242 69.0022 49.0387 67.5192 51.264C66.0361 53.4893 63.9275 55.2256 61.459 56.2542V56.25C61.459 51.5535 59.5933 47.0493 56.2723 43.7283C52.9514 40.4074 48.4472 38.5417 43.7507 38.5417H43.7465C44.9523 35.6536 47.121 33.2722 49.884 31.8022C52.647 30.3322 55.8337 29.8643 58.9026 30.478C61.9716 31.0916 64.7333 32.7491 66.7185 35.1686C68.7037 37.5881 69.7898 40.6203 69.7923 43.75ZM39.584 31.25C37.3738 31.25 35.2542 32.128 33.6914 33.6908C32.1286 35.2536 31.2507 37.3732 31.2507 39.5833V42.7083H35.4173V39.5833C35.4173 38.4783 35.8563 37.4185 36.6377 36.6371C37.4191 35.8557 38.4789 35.4167 39.584 35.4167H42.709V31.25H39.584ZM64.584 57.2917V60.4167C64.584 61.5217 64.145 62.5815 63.3636 63.3629C62.5822 64.1444 61.5224 64.5833 60.4173 64.5833H57.2923V68.75H60.4173C62.6275 68.75 64.7471 67.872 66.3099 66.3092C67.8727 64.7464 68.7506 62.6268 68.7506 60.4167V57.2917H64.584ZM43.7507 69.7917C47.3421 69.7917 50.7865 68.365 53.3261 65.8254C55.8656 63.2859 57.2923 59.8415 57.2923 56.25C57.2923 52.6585 55.8656 49.2142 53.3261 46.6746C50.7865 44.135 47.3421 42.7083 43.7507 42.7083C40.1592 42.7083 36.7148 44.135 34.1752 46.6746C31.6357 49.2142 30.209 52.6585 30.209 56.25C30.209 59.8415 31.6357 63.2859 34.1752 65.8254C36.7148 68.365 40.1592 69.7917 43.7507 69.7917ZM43.7507 51.0417L48.959 56.25L43.7507 61.4583L38.5423 56.25L43.7507 51.0417Z" fill="white"/>
</svg>
