<svg width="22" height="22" viewBox="0 0 22 22" fill="none" xmlns="http://www.w3.org/2000/svg">
<g clip-path="url(#clip0_130_21)">
<path d="M18.0974 18.1003H15.112V13.4224C15.112 12.3069 15.0893 10.8713 13.5563 10.8713C11.9998 10.8713 11.7621 12.0851 11.7621 13.3401V18.1003H8.77671V8.48065H11.6445V9.79189H11.6831C12.0838 9.03589 13.0582 8.23789 14.5139 8.23789C17.5388 8.23789 18.0982 10.2287 18.0982 12.8201L18.0974 18.1003ZM5.40495 7.16437C5.17715 7.16471 4.95152 7.12005 4.74101 7.03298C4.53051 6.9459 4.33926 6.81812 4.17826 6.65696C4.01725 6.4958 3.88966 6.30443 3.80279 6.09384C3.71591 5.88325 3.67148 5.65758 3.67203 5.42977C3.6722 5.08687 3.77405 4.75171 3.96469 4.46669C4.15534 4.18167 4.42622 3.95958 4.74309 3.82851C5.05996 3.69744 5.40857 3.66327 5.74486 3.73033C6.08114 3.79739 6.38999 3.96267 6.63234 4.20525C6.87469 4.44784 7.03967 4.75685 7.1064 5.0932C7.17314 5.42955 7.13864 5.77813 7.00726 6.09487C6.87588 6.41161 6.65353 6.68228 6.36832 6.87265C6.08311 7.06302 5.74786 7.16454 5.40495 7.16437ZM6.90183 18.1003H3.90807V8.48065H6.90183V18.1003ZM19.5909 0.920654H2.40951C1.58715 0.920654 0.921875 1.57081 0.921875 2.37301V19.6283C0.921875 20.4313 1.58715 21.0807 2.40951 21.0807H19.5884C20.4099 21.0807 21.0819 20.4313 21.0819 19.6283V2.37301C21.0819 1.57081 20.4099 0.920654 19.5884 0.920654H19.5909Z" fill="#296B82"/>
</g>
<defs>
<clipPath id="clip0_130_21">
<rect width="20.16" height="20.16" fill="white" transform="translate(0.917969 0.919312)"/>
</clipPath>
</defs>
</svg>
