<svg width="100" height="100" viewBox="0 0 100 100" fill="none" xmlns="http://www.w3.org/2000/svg">
<rect width="100" height="100" rx="50" fill="#00C2FF"/>
<g clip-path="url(#clip0_240_290)">
<path fill-rule="evenodd" clip-rule="evenodd" d="M50.9667 25.31C50.6844 25.109 50.3465 25.001 50 25.001C49.6535 25.001 49.3156 25.109 49.0333 25.31L25.7 41.9767C25.4837 42.1307 25.3073 42.3342 25.1855 42.5702C25.0638 42.8061 25.0002 43.0678 25 43.3333V73.3333C25 73.7754 25.1756 74.1993 25.4882 74.5119C25.8007 74.8244 26.2246 75 26.6667 75H31.6667V51.6667H48.3333V75H73.3333C73.7754 75 74.1993 74.8244 74.5118 74.5119C74.8244 74.1993 75 73.7754 75 73.3333V43.3333C74.9998 43.0678 74.9362 42.8061 74.8145 42.5702C74.6927 42.3342 74.5163 42.1307 74.3 41.9767L71.6667 40.0933V31.6667H68.3333V37.7133L50.9667 25.31ZM61.6667 65V51.6667H65V65H61.6667Z" fill="white"/>
<path d="M45 75V65H41.6667V61.6667H45V55H35V75H45Z" fill="white"/>
</g>
<defs>
<clipPath id="clip0_240_290">
<rect width="50" height="50" fill="white" transform="translate(25 25)"/>
</clipPath>
</defs>
</svg>
