<svg width="100" height="100" viewBox="0 0 100 100" fill="none" xmlns="http://www.w3.org/2000/svg">
<rect width="100" height="100" rx="50" fill="#00C2FF"/>
<g clip-path="url(#clip0_240_315)">
<path d="M64.584 50C64.584 49.4474 64.8035 48.9175 65.1942 48.5268C65.5849 48.1361 66.1148 47.9166 66.6673 47.9166H66.6882C67.2407 47.9166 67.7706 48.1361 68.1613 48.5268C68.552 48.9175 68.7715 49.4474 68.7715 50C68.7715 50.5525 68.552 51.0824 68.1613 51.4731C67.7706 51.8638 67.2407 52.0833 66.6882 52.0833H66.6673C66.1148 52.0833 65.5849 51.8638 65.1942 51.4731C64.8035 51.0824 64.584 50.5525 64.584 50Z" fill="white"/>
<path fill-rule="evenodd" clip-rule="evenodd" d="M63.7507 33.3334H32.084C30.7579 33.3334 29.4861 33.8602 28.5485 34.7978C27.6108 35.7355 27.084 37.0073 27.084 38.3334V61.6667C27.084 62.9928 27.6108 64.2646 28.5485 65.2022C29.4861 66.1399 30.7579 66.6667 32.084 66.6667H63.7507C65.0767 66.6667 66.3485 66.1399 67.2862 65.2022C68.2239 64.2646 68.7507 62.9928 68.7507 61.6667V58.3334H69.584C71.0206 58.3334 72.3983 57.7627 73.4142 56.7469C74.43 55.731 75.0007 54.3533 75.0007 52.9167V47.0834C75.0007 46.372 74.8605 45.6677 74.5883 45.0105C74.3161 44.3533 73.9171 43.7562 73.4142 43.2532C72.9112 42.7502 72.314 42.3512 71.6569 42.079C70.9997 41.8068 70.2953 41.6667 69.584 41.6667H68.7507V38.3334C68.7507 37.0073 68.2239 35.7355 67.2862 34.7978C66.3485 33.8602 65.0767 33.3334 63.7507 33.3334ZM59.584 45.8334C59.2525 45.8334 58.9345 45.9651 58.7001 46.1995C58.4657 46.4339 58.334 46.7519 58.334 47.0834V52.9167C58.334 53.2482 58.4657 53.5662 58.7001 53.8006C58.9345 54.035 59.2525 54.1667 59.584 54.1667H69.584C69.9155 54.1667 70.2335 54.035 70.4679 53.8006C70.7023 53.5662 70.834 53.2482 70.834 52.9167V47.0834C70.834 46.7519 70.7023 46.4339 70.4679 46.1995C70.2335 45.9651 69.9155 45.8334 69.584 45.8334H59.584Z" fill="white"/>
</g>
<defs>
<clipPath id="clip0_240_315">
<rect width="50" height="50" fill="white" transform="translate(25 25)"/>
</clipPath>
</defs>
</svg>
