<svg width="31" height="35" viewBox="0 0 31 35" fill="none" xmlns="http://www.w3.org/2000/svg">
<path d="M27.1667 3.90031H20.2C19.8587 2.90657 19.2231 2.04556 18.3811 1.43639C17.5391 0.827217 16.5323 0.5 15.5 0.5C14.4677 0.5 13.4609 0.827217 12.6189 1.43639C11.7769 2.04556 11.1413 2.90657 10.8 3.90031H3.83333C2.95009 3.903 2.10378 4.26207 1.47922 4.89911C0.854674 5.53614 0.502638 6.39938 0.5 7.30027V31.1C0.502638 32.0009 0.854674 32.8642 1.47922 33.5012C2.10378 34.1382 2.95009 34.4973 3.83333 34.5H27.1667C28.0499 34.4973 28.8962 34.1382 29.5208 33.5012C30.1453 32.8642 30.4974 32.0009 30.5 31.1V7.30027C30.4974 6.39938 30.1453 5.53614 29.5208 4.89911C28.8962 4.26207 28.0499 3.903 27.1667 3.90031ZM15.5 3.90031C15.8296 3.90031 16.1519 4.00001 16.426 4.18681C16.7 4.37361 16.9137 4.63911 17.0398 4.94974C17.1659 5.26037 17.1989 5.60218 17.1346 5.93194C17.0703 6.26171 16.9116 6.56461 16.6785 6.80236C16.4454 7.04011 16.1485 7.20202 15.8252 7.26761C15.5018 7.3332 15.1667 7.29954 14.8622 7.17087C14.5576 7.0422 14.2974 6.82431 14.1142 6.54475C13.9311 6.26519 13.8333 5.93652 13.8333 5.60029C13.8347 5.14984 14.0107 4.71823 14.3229 4.39971C14.6352 4.08119 15.0584 3.90165 15.5 3.90031ZM12.1667 12.4002L16.8167 17.15L21.0167 12.866L18.8333 10.7002H25.5V17.5002L23.3733 15.2715L16.82 21.9609L12.1667 17.2112L7.85667 21.6039L5.5 19.2002L12.1667 12.4002ZM27.1667 29.4001H3.83333V26.0001H27.1667V29.4001Z" fill="#27516C"/>
</svg>
