<svg width="40" height="41" viewBox="0 0 40 41" fill="none" xmlns="http://www.w3.org/2000/svg">
<path d="M30.9375 0.6875C24.025 0.6875 18.3572 6.06219 17.8606 12.85C15.4558 10.6556 12.318 9.43861 9.0625 9.4375H0.3125V18.1875C0.3125 25.4259 6.20125 31.3125 13.4375 31.3125H17.8125V40.0625H22.1875V22.5625H26.5625C33.7988 22.5625 39.6875 16.6759 39.6875 9.4375V0.6875H30.9375ZM13.4375 26.9375C8.61187 26.9375 4.6875 23.0131 4.6875 18.1875V13.8125H9.0625C13.8881 13.8125 17.8125 17.7369 17.8125 22.5625V23.8444L12.7966 18.8284L9.70344 21.9216L14.7194 26.9375H13.4375ZM35.3125 9.4375C35.3125 14.2631 31.3881 18.1875 26.5625 18.1875H25.2806L30.2966 13.1716L27.2034 10.0784L22.1875 15.0944V13.8125C22.1875 8.98687 26.1119 5.0625 30.9375 5.0625H35.3125V9.4375Z" fill="#E5BD3E"/>
</svg>
