<svg width="21" height="22" viewBox="0 0 21 22" fill="none" xmlns="http://www.w3.org/2000/svg">
<g clip-path="url(#clip0_130_27)">
<path d="M20.9516 11.0637C20.9516 5.46169 16.4383 0.920654 10.8716 0.920654C5.30238 0.921914 0.789062 5.4617 0.789062 11.0649C0.789062 16.1263 4.47582 20.3221 9.29406 21.0832V13.9957H6.73626V11.0649H9.29658V8.82841C9.29658 6.28699 10.8023 4.88335 13.1043 4.88335C14.2081 4.88335 15.361 5.08117 15.361 5.08117V7.57597H14.0896C12.8384 7.57597 12.4478 8.35843 12.4478 9.16105V11.0637H15.2425L14.7965 13.9944H12.4466V21.0819C17.2648 20.3209 20.9516 16.1251 20.9516 11.0637Z" fill="#296B82"/>
</g>
<defs>
<clipPath id="clip0_130_27">
<rect width="20.16" height="20.16" fill="white" transform="translate(0.799805 0.919312)"/>
</clipPath>
</defs>
</svg>
