<svg width="31" height="31" viewBox="0 0 31 31" fill="none" xmlns="http://www.w3.org/2000/svg">
<path d="M3 6.125H11.4462C11.9389 6.12494 12.4267 6.22195 12.8818 6.41047C13.3369 6.599 13.7505 6.87536 14.0987 7.22375L18 11.125M6.75 17.375H3M11.125 9.875L13.625 12.375C13.7892 12.5392 13.9194 12.734 14.0082 12.9485C14.097 13.163 14.1428 13.3929 14.1428 13.625C14.1428 13.8571 14.097 14.087 14.0082 14.3015C13.9194 14.516 13.7892 14.7108 13.625 14.875C13.4608 15.0392 13.266 15.1694 13.0515 15.2582C12.837 15.347 12.6071 15.3928 12.375 15.3928C12.1429 15.3928 11.913 15.347 11.6985 15.2582C11.484 15.1694 11.2892 15.0392 11.125 14.875L9.25 13C8.175 14.075 6.47125 14.1963 5.25375 13.2838L4.875 13" stroke="#27516C" stroke-width="1.5" stroke-linecap="round" stroke-linejoin="round"/>
<path d="M6.75 14.25V19.875C6.75 22.2325 6.75 23.41 7.4825 24.1425C8.215 24.875 9.3925 24.875 11.75 24.875H23C25.3575 24.875 26.535 24.875 27.2675 24.1425C28 23.41 28 22.2325 28 19.875V16.125C28 13.7675 28 12.59 27.2675 11.8575C26.535 11.125 25.3575 11.125 23 11.125H12.375" stroke="#27516C" stroke-width="1.5" stroke-linecap="round" stroke-linejoin="round"/>
<path d="M19.5625 18C19.5625 18.5802 19.332 19.1366 18.9218 19.5468C18.5116 19.957 17.9552 20.1875 17.375 20.1875C16.7948 20.1875 16.2384 19.957 15.8282 19.5468C15.418 19.1366 15.1875 18.5802 15.1875 18C15.1875 17.4198 15.418 16.8634 15.8282 16.4532C16.2384 16.043 16.7948 15.8125 17.375 15.8125C17.9552 15.8125 18.5116 16.043 18.9218 16.4532C19.332 16.8634 19.5625 17.4198 19.5625 18Z" stroke="#27516C" stroke-width="1.5" stroke-linecap="round" stroke-linejoin="round"/>
</svg>
