<svg width="25" height="24" viewBox="0 0 25 24" fill="none" xmlns="http://www.w3.org/2000/svg">
<path d="M12.4495 7.28986C9.84255 7.28986 7.73861 9.3938 7.73861 12.0008C7.73861 14.6077 9.84255 16.7116 12.4495 16.7116C15.0565 16.7116 17.1604 14.6077 17.1604 12.0008C17.1604 9.3938 15.0565 7.28986 12.4495 7.28986ZM12.4495 15.0625C10.7636 15.0625 9.38777 13.6867 9.38777 12.0008C9.38777 10.3148 10.7636 8.93902 12.4495 8.93902C14.1354 8.93902 15.5112 10.3148 15.5112 12.0008C15.5112 13.6867 14.1354 15.0625 12.4495 15.0625ZM17.3533 5.99902C16.7447 5.99902 16.2531 6.49055 16.2531 7.09922C16.2531 7.70789 16.7447 8.19942 17.3533 8.19942C17.962 8.19942 18.4535 7.71019 18.4535 7.09922C18.4537 6.95469 18.4254 6.81154 18.3702 6.67798C18.3149 6.54441 18.2339 6.42305 18.1317 6.32085C18.0295 6.21865 17.9081 6.13762 17.7746 6.0824C17.641 6.02717 17.4979 5.99883 17.3533 5.99902ZM21.6324 12.0008C21.6324 10.7329 21.6439 9.47649 21.5727 8.21091C21.5015 6.74091 21.1661 5.43628 20.0912 4.36134C19.014 3.28411 17.7116 2.95106 16.2416 2.87986C14.9738 2.80866 13.7174 2.82014 12.4518 2.82014C11.1839 2.82014 9.92753 2.80866 8.66196 2.87986C7.19196 2.95106 5.88733 3.28641 4.81239 4.36134C3.73516 5.43858 3.40211 6.74091 3.33091 8.21091C3.25971 9.47878 3.27119 10.7352 3.27119 12.0008C3.27119 13.2663 3.25971 14.525 3.33091 15.7906C3.40211 17.2606 3.73746 18.5652 4.81239 19.6402C5.88963 20.7174 7.19196 21.0504 8.66196 21.1216C9.92983 21.1928 11.1862 21.1814 12.4518 21.1814C13.7197 21.1814 14.9761 21.1928 16.2416 21.1216C17.7116 21.0504 19.0163 20.7151 20.0912 19.6402C21.1684 18.5629 21.5015 17.2606 21.5727 15.7906C21.6462 14.525 21.6324 13.2686 21.6324 12.0008ZM19.6112 17.4168C19.4435 17.8348 19.2414 18.1472 18.9175 18.4688C18.5936 18.7926 18.2836 18.9947 17.8655 19.1624C16.6574 19.6425 13.7886 19.5345 12.4495 19.5345C11.1104 19.5345 8.23933 19.6425 7.03117 19.1647C6.61314 18.997 6.30077 18.7949 5.97921 18.471C5.65535 18.1472 5.45322 17.8371 5.28555 17.4191C4.8078 16.2086 4.91575 13.3398 4.91575 12.0008C4.91575 10.6617 4.8078 7.79058 5.28555 6.58242C5.45322 6.16439 5.65535 5.85202 5.97921 5.53045C6.30307 5.20889 6.61314 5.00447 7.03117 4.8368C8.23933 4.35905 11.1104 4.467 12.4495 4.467C13.7886 4.467 16.6597 4.35905 17.8678 4.8368C18.2859 5.00447 18.5982 5.20659 18.9198 5.53045C19.2437 5.85431 19.4458 6.16439 19.6135 6.58242C20.0912 7.79058 19.9833 10.6617 19.9833 12.0008C19.9833 13.3398 20.0912 16.2086 19.6112 17.4168Z" fill="#296B82"/>
</svg>
