<svg width="31" height="31" viewBox="0 0 31 31" fill="none" xmlns="http://www.w3.org/2000/svg">
<path d="M8 25.5C6.625 25.5 5.44792 25.0104 4.46875 24.0312C3.48958 23.0521 3 21.875 3 20.5V10.5C3 9.125 3.48958 7.94792 4.46875 6.96875C5.44792 5.98958 6.625 5.5 8 5.5H23C24.375 5.5 25.5521 5.98958 26.5312 6.96875C27.5104 7.94792 28 9.125 28 10.5V20.5C28 21.875 27.5104 23.0521 26.5312 24.0312C25.5521 25.0104 24.375 25.5 23 25.5H8ZM8 10.5H23C23.4583 10.5 23.8958 10.5521 24.3125 10.6562C24.7292 10.7604 25.125 10.9271 25.5 11.1562V10.5C25.5 9.8125 25.2554 9.22417 24.7663 8.735C24.2771 8.24583 23.6883 8.00083 23 8H8C7.3125 8 6.72417 8.245 6.235 8.735C5.74583 9.225 5.50083 9.81333 5.5 10.5V11.1562C5.875 10.9271 6.27083 10.7604 6.6875 10.6562C7.10417 10.5521 7.54167 10.5 8 10.5ZM5.6875 14.5625L19.5938 17.9375C19.7812 17.9792 19.9688 17.9792 20.1562 17.9375C20.3438 17.8958 20.5208 17.8125 20.6875 17.6875L25.0312 14.0625C24.8021 13.75 24.5104 13.495 24.1562 13.2975C23.8021 13.1 23.4167 13.0008 23 13H8C7.45833 13 6.98458 13.1408 6.57875 13.4225C6.17292 13.7042 5.87583 14.0842 5.6875 14.5625Z" fill="#27516C"/>
</svg>
