<svg width="100" height="100" viewBox="0 0 100 100" fill="none" xmlns="http://www.w3.org/2000/svg">
<rect width="100" height="100" rx="50" fill="#00C2FF"/>
<path d="M72.2708 63.2708L74.6458 61.1875L72.5625 57.5833L69.5417 58.6042C68.875 58.0417 68.125 57.6042 67.2917 57.2917L66.6667 54.1667H62.5L61.875 57.2708C61.0417 57.5833 60.2917 58.0208 59.625 58.5833L56.6042 57.5625L54.5208 61.1667L56.8958 63.25C56.7292 64.2917 56.7292 64.8333 56.8958 65.875L54.5208 67.9583L56.6042 71.5625L59.625 70.5417C60.2917 71.1042 61.0417 71.5417 61.875 71.8542L62.5 75H66.6667L67.2917 71.8958C68.125 71.5833 68.875 71.1458 69.5417 70.5833L72.5625 71.6042L74.6458 68L72.2708 65.9167C72.4375 64.8542 72.4375 64.3125 72.2708 63.2708ZM64.5833 68.75C62.2917 68.75 60.4167 66.875 60.4167 64.5833C60.4167 62.2917 62.2917 60.4167 64.5833 60.4167C66.875 60.4167 68.75 62.2917 68.75 64.5833C68.75 66.875 66.875 68.75 64.5833 68.75ZM47.9167 39.5833V50.8542L52.8333 55.7708L55 52.0417L52.0833 49.1458V39.5833H47.9167ZM68.75 50C68.75 45.0272 66.7746 40.2581 63.2583 36.7417C59.7419 33.2254 54.9728 31.25 50 31.25C44.1042 31.25 38.8542 34 35.4167 38.25V33.3333H31.25V45.8333H43.75V41.6667H38.0417C39.3854 39.74 41.174 38.1659 43.2558 37.0778C45.3375 35.9898 47.651 35.4199 50 35.4167C58.0417 35.4167 64.5833 41.9583 64.5833 50H68.75ZM47.625 64.3958C41.3958 63.375 36.4792 58.3542 35.5833 52.0833H31.375C32.4167 61.4583 40.3542 68.75 50 68.75H50.1458L47.625 64.3958Z" fill="white"/>
</svg>
