<svg width="31" height="31" viewBox="0 0 31 31" fill="none" xmlns="http://www.w3.org/2000/svg">
<path d="M17.2338 4.78128L25.19 10.085C25.3612 10.1992 25.5016 10.3538 25.5987 10.5353C25.6958 10.7167 25.7466 10.9193 25.7466 11.125C25.7466 11.3308 25.6958 11.5334 25.5987 11.7148C25.5016 11.8962 25.3612 12.0509 25.19 12.165L17.2338 17.47C16.7204 17.8124 16.1171 17.9951 15.5 17.9951C14.8829 17.9951 14.2797 17.8124 13.7663 17.47L5.81002 12.165C5.63882 12.0509 5.49845 11.8962 5.40137 11.7148C5.30429 11.5334 5.25349 11.3308 5.25349 11.125C5.25349 10.9193 5.30429 10.7167 5.40137 10.5353C5.49845 10.3538 5.63882 10.1992 5.81002 10.085L13.7663 4.78128C14.2797 4.43892 14.8829 4.25623 15.5 4.25623C16.1171 4.25623 16.7204 4.43892 17.2338 4.78128ZM25.5325 15.74C25.3471 16.0369 25.1014 16.2916 24.8113 16.4875L17.2488 21.5925C16.7323 21.9413 16.1233 22.1276 15.5 22.1276C14.8768 22.1276 14.2678 21.9413 13.7513 21.5925L6.18877 16.4875C5.73616 16.1822 5.39594 15.7371 5.22011 15.2202C5.04427 14.7033 5.04249 14.143 5.21502 13.625L13.7663 19.325C14.2463 19.6449 14.8056 19.8257 15.3821 19.8474C15.9586 19.869 16.5298 19.7306 17.0325 19.4475L17.2325 19.325L25.7838 13.625C25.9002 13.9743 25.9381 14.345 25.8946 14.7106C25.8512 15.0762 25.7276 15.4277 25.5325 15.74ZM25.5325 19.8025C25.3471 20.0994 25.1014 20.3541 24.8113 20.55L17.2488 25.655C16.7323 26.0038 16.1233 26.1901 15.5 26.1901C14.8768 26.1901 14.2678 26.0038 13.7513 25.655L6.18877 20.55C5.73616 20.2447 5.39594 19.7996 5.22011 19.2827C5.04427 18.7658 5.04249 18.2055 5.21502 17.6875L13.7663 23.3875C14.2463 23.7074 14.8056 23.8882 15.3821 23.9099C15.9586 23.9315 16.5298 23.7931 17.0325 23.51L17.2325 23.3875L25.7838 17.6875C25.9002 18.0368 25.9381 18.4075 25.8946 18.7731C25.8512 19.1387 25.7276 19.4902 25.5325 19.8025Z" fill="#296B82"/>
</svg>
