<svg width="31" height="31" viewBox="0 0 31 31" fill="none" xmlns="http://www.w3.org/2000/svg">
<path d="M6.75 26.75C6.0625 26.75 5.47417 26.5054 4.985 26.0163C4.49583 25.5271 4.25083 24.9383 4.25 24.25V6.75C4.25 6.0625 4.495 5.47417 4.985 4.985C5.475 4.49583 6.06333 4.25083 6.75 4.25H20.7188C21.0521 4.25 21.37 4.3125 21.6725 4.4375C21.975 4.5625 22.2404 4.73958 22.4688 4.96875L26.0312 8.53125C26.2604 8.76042 26.4375 9.02625 26.5625 9.32875C26.6875 9.63125 26.75 9.94875 26.75 10.2812V24.25C26.75 24.9375 26.5054 25.5263 26.0163 26.0163C25.5271 26.5063 24.9383 26.7508 24.25 26.75H6.75ZM15.5 23C16.5417 23 17.4271 22.6354 18.1562 21.9062C18.8854 21.1771 19.25 20.2917 19.25 19.25C19.25 18.2083 18.8854 17.3229 18.1562 16.5938C17.4271 15.8646 16.5417 15.5 15.5 15.5C14.4583 15.5 13.5729 15.8646 12.8438 16.5938C12.1146 17.3229 11.75 18.2083 11.75 19.25C11.75 20.2917 12.1146 21.1771 12.8438 21.9062C13.5729 22.6354 14.4583 23 15.5 23ZM9.25 13H18C18.3542 13 18.6513 12.88 18.8913 12.64C19.1313 12.4 19.2508 12.1033 19.25 11.75V9.25C19.25 8.89583 19.13 8.59917 18.89 8.36C18.65 8.12083 18.3533 8.00083 18 8H9.25C8.89583 8 8.59917 8.12 8.36 8.36C8.12083 8.6 8.00083 8.89667 8 9.25V11.75C8 12.1042 8.12 12.4013 8.36 12.6413C8.6 12.8813 8.89667 13.0008 9.25 13Z" fill="#27516C"/>
</svg>
