<svg width="31" height="31" viewBox="0 0 31 31" fill="none" xmlns="http://www.w3.org/2000/svg">
<g clip-path="url(#clip0_163_499)">
<path fill-rule="evenodd" clip-rule="evenodd" d="M2.5 3.5C2.5 2.70435 2.81607 1.94129 3.37868 1.37868C3.94129 0.81607 4.70435 0.5 5.5 0.5L21.914 0.5L28.5 7.086V27.5C28.5 28.2956 28.1839 29.0587 27.6213 29.6213C27.0587 30.1839 26.2956 30.5 25.5 30.5H5.5C4.70435 30.5 3.94129 30.1839 3.37868 29.6213C2.81607 29.0587 2.5 28.2956 2.5 27.5V3.5ZM14.5 8.5H8.5V10.5H14.5V8.5ZM22.5 14.5H8.5V16.5H22.5V14.5ZM13.11 22.316C12.302 22.532 11.67 23.15 11.45 23.816L9.55 23.184C9.996 21.85 11.164 20.768 12.59 20.384C14.004 20.004 15.618 20.324 17.014 21.606C17.434 21.4847 17.8487 21.4133 18.258 21.392C19.338 21.334 20.304 21.606 21.134 21.952C21.744 22.206 22.334 22.526 22.834 22.796C22.9913 22.884 23.1393 22.964 23.278 23.036C23.924 23.376 24.278 23.5 24.5 23.5V25.5C23.72 25.5 22.952 25.124 22.348 24.808L21.804 24.516C21.3363 24.2527 20.8557 24.013 20.364 23.798C19.696 23.518 19.038 23.354 18.366 23.39C18.2657 23.3956 18.1656 23.4049 18.066 23.418L18.068 23.446C18.122 24.094 17.854 24.628 17.508 25.012C16.872 25.72 15.834 26.092 15.054 26.232C14.6497 26.3118 14.2355 26.3287 13.826 26.282C13.5938 26.2523 13.3696 26.1776 13.166 26.062C13.0074 25.9712 12.8709 25.8465 12.7661 25.6968C12.6613 25.5471 12.591 25.3761 12.56 25.196C12.5114 24.8595 12.5906 24.517 12.782 24.236C12.9277 24.023 13.1043 23.833 13.306 23.672C13.686 23.358 14.236 23.018 14.974 22.646L15.028 22.606C14.7444 22.4299 14.4279 22.3134 14.0978 22.2635C13.7677 22.2137 13.433 22.2315 13.11 22.316Z" fill="#27516C"/>
</g>
<defs>
<clipPath id="clip0_163_499">
<rect width="30" height="30" fill="white" transform="translate(0.5 0.5)"/>
</clipPath>
</defs>
</svg>
