<svg width="20" height="19" viewBox="0 0 20 19" fill="none" xmlns="http://www.w3.org/2000/svg">
<path d="M18 19C18.3978 19 18.7794 18.842 19.0607 18.5607C19.342 18.2794 19.5 17.8978 19.5 17.5V14C19.5 13.6022 19.342 13.2206 19.0607 12.9393C18.7794 12.658 18.3978 12.5 18 12.5C16.83 12.5 15.68 12.32 14.58 11.95C14.317 11.867 14.0363 11.8576 13.7683 11.9228C13.5004 11.988 13.2554 12.1254 13.06 12.32L11.62 13.76C9.13224 12.4024 7.08758 10.3578 5.73 7.87L7.16 6.44C7.57 6.05 7.72 5.47 7.54 4.91C7.18 3.82 7 2.67 7 1.5C7 1.10218 6.84196 0.720644 6.56066 0.43934C6.27936 0.158035 5.89782 0 5.5 0H2C1.60218 0 1.22064 0.158035 0.93934 0.43934C0.658035 0.720644 0.5 1.10218 0.5 1.5C0.5 11.15 8.35 19 18 19ZM2 1H5.5C5.63261 1 5.75979 1.05268 5.85355 1.14645C5.94732 1.24021 6 1.36739 6 1.5C6 2.78 6.2 4.03 6.59 5.22C6.64 5.36 6.63 5.56 6.47 5.72L4.5 7.68C6.15 10.91 8.57 13.33 11.81 15L13.76 13.03C13.9 12.89 14.09 12.85 14.27 12.9C15.47 13.3 16.72 13.5 18 13.5C18.1326 13.5 18.2598 13.5527 18.3536 13.6464C18.4473 13.7402 18.5 13.8674 18.5 14V17.5C18.5 17.6326 18.4473 17.7598 18.3536 17.8536C18.2598 17.9473 18.1326 18 18 18C8.9 18 1.5 10.6 1.5 1.5C1.5 1.36739 1.55268 1.24021 1.64645 1.14645C1.74021 1.05268 1.86739 1 2 1Z" fill="black"/>
</svg>
