<svg width="31" height="31" viewBox="0 0 31 31" fill="none" xmlns="http://www.w3.org/2000/svg">
<path d="M27.375 11.75C27.3755 13.3545 26.9009 14.9232 26.0111 16.2584C25.1213 17.5936 23.8561 18.6354 22.375 19.2525V19.25C22.375 16.4321 21.2556 13.7296 19.263 11.737C17.2704 9.74441 14.5679 8.62499 11.75 8.62499H11.7475C12.471 6.89216 13.7722 5.46332 15.43 4.58131C17.0878 3.69931 18.9998 3.41855 20.8412 3.78676C22.6825 4.15497 24.3396 5.14943 25.5307 6.60113C26.7218 8.05283 27.3735 9.87218 27.375 11.75ZM9.25 4.24999C7.92392 4.24999 6.65215 4.77678 5.71447 5.71446C4.77678 6.65214 4.25 7.92391 4.25 9.24999V11.125H6.75V9.24999C6.75 8.58695 7.01339 7.95107 7.48223 7.48222C7.95107 7.01338 8.58696 6.74999 9.25 6.74999H11.125V4.24999H9.25ZM24.25 19.875V21.75C24.25 22.413 23.9866 23.0489 23.5178 23.5178C23.0489 23.9866 22.413 24.25 21.75 24.25H19.875V26.75H21.75C23.0761 26.75 24.3479 26.2232 25.2855 25.2855C26.2232 24.3478 26.75 23.0761 26.75 21.75V19.875H24.25ZM11.75 27.375C13.9049 27.375 15.9715 26.519 17.4952 24.9952C19.019 23.4715 19.875 21.4049 19.875 19.25C19.875 17.0951 19.019 15.0285 17.4952 13.5047C15.9715 11.981 13.9049 11.125 11.75 11.125C9.59512 11.125 7.52849 11.981 6.00476 13.5047C4.48102 15.0285 3.625 17.0951 3.625 19.25C3.625 21.4049 4.48102 23.4715 6.00476 24.9952C7.52849 26.519 9.59512 27.375 11.75 27.375ZM11.75 16.125L14.875 19.25L11.75 22.375L8.625 19.25L11.75 16.125Z" fill="#296B82"/>
</svg>
