<svg width="35" height="35" viewBox="0 0 35 35" fill="none" xmlns="http://www.w3.org/2000/svg">
<g clip-path="url(#clip0_86_298)">
<path d="M8.75 13.125C9.91032 13.125 11.0231 12.6641 11.8436 11.8436C12.6641 11.0231 13.125 9.91032 13.125 8.75M8.75 13.125C7.58968 13.125 6.47688 12.6641 5.65641 11.8436C4.83594 11.0231 4.375 9.91032 4.375 8.75M8.75 13.125V17.5M13.125 8.75C13.125 7.58968 12.6641 6.47688 11.8436 5.65641C11.0231 4.83594 9.91032 4.375 8.75 4.375M13.125 8.75H17.5M8.75 4.375C7.58968 4.375 6.47688 4.83594 5.65641 5.65641C4.83594 6.47688 4.375 7.58968 4.375 8.75M8.75 4.375V0M4.375 8.75H0M2.91667 2.91667L5.83333 5.83333M11.6667 11.6667L14.5833 14.5833M14.5833 2.91667L11.6667 5.83333M5.83333 11.6667L2.91667 14.5833M26.25 17.5C27.4103 17.5 28.5231 17.0391 29.3436 16.2186C30.1641 15.3981 30.625 14.2853 30.625 13.125M26.25 17.5C25.0897 17.5 23.9769 17.0391 23.1564 16.2186C22.3359 15.3981 21.875 14.2853 21.875 13.125M26.25 17.5V21.875M30.625 13.125C30.625 11.9647 30.1641 10.8519 29.3436 10.0314C28.5231 9.21094 27.4103 8.75 26.25 8.75M30.625 13.125H35M26.25 8.75C25.0897 8.75 23.9769 9.21094 23.1564 10.0314C22.3359 10.8519 21.875 11.9647 21.875 13.125M26.25 8.75V4.375M21.875 13.125H17.5M20.4167 7.29167L23.3333 10.2083M29.1667 16.0417L32.0833 18.9583M32.0833 7.29167L29.1667 10.2083M23.3333 16.0417L20.4167 18.9583M13.125 30.625C14.2853 30.625 15.3981 30.1641 16.2186 29.3436C17.0391 28.5231 17.5 27.4103 17.5 26.25M13.125 30.625C11.9647 30.625 10.8519 30.1641 10.0314 29.3436C9.21094 28.5231 8.75 27.4103 8.75 26.25M13.125 30.625V35M17.5 26.25C17.5 25.0897 17.0391 23.9769 16.2186 23.1564C15.3981 22.3359 14.2853 21.875 13.125 21.875M17.5 26.25H21.875M13.125 21.875C11.9647 21.875 10.8519 22.3359 10.0314 23.1564C9.21094 23.9769 8.75 25.0897 8.75 26.25M13.125 21.875V17.5M8.75 26.25H4.375M7.29167 20.4167L10.2083 23.3333M16.0417 29.1667L18.9583 32.0833M18.9583 20.4167L16.0417 23.3333M10.2083 29.1667L7.29167 32.0833" stroke="#27516C" stroke-width="2"/>
</g>
<defs>
<clipPath id="clip0_86_298">
<rect width="35" height="35" fill="white"/>
</clipPath>
</defs>
</svg>
